#!OML:ASF H:\MichaelJackson\Top Level 1\Subject 1\Session 1\male.ASF
:FULLY-SPECIFIED
:DEGREES
839
root 1.90065 15.6769 13.0917 16.1912 -10.3581 0.976173
lowerback -1.32425 -1.41991 4.72763
upperback -2.84267 -1.985 -4.19293
thorax -2.51516 -1.16951 -7.01476
lowerneck -6.95152 3.21624 5.73495
upperneck -5.92416 3.94323 1.40664
head -0.601513 1.84716 -0.442653
rclavicle 5.46658e-014 7.95139e-015
rhumerus 9.33739 -30.746 6.05231
rradius 25.5388
rwrist -13.1603
rhand -35.773 -52.589
rfingers 7.12502
rthumb -8.89075 -82.3817
lclavicle 5.46658e-014 7.95139e-015
lhumerus -57.0773 -35.0149 115.455
lradius 50.5554
lwrist 22.3066
lhand 37.9043 34.5277
lfingers 7.12502
lthumb 60.6364 47.6221
rfemur -42.162 -8.60184 -2.30119
rtibia 55.7404
rfoot -14.3517 7.04677
rtoes -31.7717
lfemur 3.00971 10.518 9.56063
ltibia 1.43125e-014
lfoot -22.8732 -26.2417
ltoes -32.3649
840
root 1.9042 15.6881 13.0886 16.3412 -10.4958 0.819563
lowerback -1.23074 -1.3922 4.82388
upperback -2.82565 -1.94246 -4.10597
thorax -2.54365 -1.14923 -6.97608
lowerneck -6.90647 3.2465 5.72394
upperneck -5.93816 3.98543 1.31299
head -0.610325 1.86824 -0.469946
rclavicle 6.99722e-014 3.89618e-014
rhumerus 9.31035 -30.5462 6.07241
rradius 25.5728
rwrist -12.8977
rhand -35.6449 -52.3119
rfingers 7.12502
rthumb -8.76714 -82.1098
lclavicle 6.99722e-014 3.89618e-014
lhumerus -57.0084 -34.9921 115.523
lradius 50.4467
lwrist 22.0195
lhand 38.1317 34.1294
lfingers 7.12502
lthumb 60.8292 47.0087
rfemur -42.4074 -8.48255 -2.07943
rtibia 55.7195
rfoot -14.0511 6.93804
rtoes -31.5892
lfemur 3.01365 10.728 9.63204
ltibia 1.11319e-014
lfoot -22.7613 -26.0849
ltoes -32.3829
841
root 1.90718 15.6988 13.0853 16.4643 -10.6608 0.735744
lowerback -1.11978 -1.36968 4.8124
upperback -2.81119 -1.90681 -4.03612
thorax -2.58211 -1.13053 -6.89298
lowerneck -6.85192 3.28132 5.73368
upperneck -5.95498 4.03384 1.24528
head -0.621612 1.89181 -0.492747
rclavicle -2.38542e-015 -2.38542e-014
rhumerus 9.3014 -30.3309 6.07288
rradius 25.6278
rwrist -12.8101
rhand -35.6232 -52.0544
rfingers 7.12502
rthumb -8.74623 -81.8532
lclavicle -2.38542e-015 -2.38542e-014
lhumerus -56.9385 -34.8903 115.584
lradius 50.4072
lwrist 21.8754
lhand 38.0592 33.971
lfingers 7.12502
lthumb 60.7678 46.9192
rfemur -42.6646 -8.3977 -1.91398
rtibia 55.7308
rfoot -13.7475 6.79912
rtoes -31.4115
lfemur 3.03656 10.9366 9.63268
ltibia -7.95139e-015
lfoot -22.6368 -25.9708
ltoes -32.384
842
root 1.90926 15.7092 13.0817 16.5642 -10.836 0.729382
lowerback -0.998995 -1.35253 4.7021
upperback -2.7976 -1.87915 -3.9937
thorax -2.62557 -1.11413 -6.78183
lowerneck -6.78691 3.31366 5.75927
upperneck -5.9895 4.08051 1.22315
head -0.640827 1.91352 -0.504503
rclavicle -6.75868e-015 4.53229e-014
rhumerus 9.29306 -30.1407 6.05087
rradius 25.6852
rwrist -12.8521
rhand -35.6899 -51.8368
rfingers 7.12502
rthumb -8.81052 -81.6328
lclavicle -6.75868e-015 4.53229e-014
lhumerus -56.8724 -34.7679 115.647
lradius 50.4238
lwrist 21.8579
lhand 37.7481 34.0318
lfingers 7.12502
lthumb 60.5036 47.2724
rfemur -42.9268 -8.3496 -1.82236
rtibia 55.7654
rfoot -13.4306 6.67374
rtoes -31.2224
lfemur 3.05721 11.1306 9.55739
ltibia 3.02153e-014
lfoot -22.5035 -25.8996
ltoes -32.3692
843
root 1.91031 15.7199 13.0775 16.6517 -10.9989 0.789507
lowerback -0.878735 -1.34018 4.52168
upperback -2.78335 -1.8594 -3.98327
thorax -2.66798 -1.10047 -6.66432
lowerneck -6.71419 3.34118 5.79703
upperneck -6.04555 4.12296 1.25743
head -0.669112 1.93203 -0.501303
rclavicle -4.39314e-014 -5.56597e-015
rhumerus 9.25224 -29.9748 6.02915
rradius 25.7343
rwrist -12.9631
rhand -35.795 -51.691
rfingers 7.12502
rthumb -8.91202 -81.4828
lclavicle -4.39314e-014 -5.56597e-015
lhumerus -56.8071 -34.6713 115.707
lradius 50.4698
lwrist 21.8989
lhand 37.3358 34.2252
lfingers 7.12502
lthumb 60.1524 47.8445
rfemur -43.1889 -8.32683 -1.80806
rtibia 55.8125
rfoot -13.0986 6.58302
rtoes -31.074
lfemur 3.04926 11.2985 9.41662
ltibia -5.88403e-014
lfoot -22.36 -25.8647
ltoes -32.3315
844
root 1.91044 15.7315 13.0727 16.7357 -11.1298 0.890684
lowerback -0.760857 -1.33064 4.31337
upperback -2.76734 -1.84489 -4.00219
thorax -2.70827 -1.08912 -6.56209
lowerneck -6.6432 3.35801 5.83652
upperneck -6.12301 4.15354 1.35007
head -0.705324 1.94369 -0.480806
rclavicle -1.47101e-014 5.725e-014
rhumerus 9.17625 -29.8804 6.00568
rradius 25.7557
rwrist -13.0336
rhand -35.8811 -51.6105
rfingers 7.12502
rthumb -8.99507 -81.3987
lclavicle -1.47101e-014 5.725e-014
lhumerus -56.7365 -34.6231 115.75
lradius 50.5194
lwrist 21.9068
lhand 36.9741 34.4479
lfingers 7.12502
lthumb 59.843 48.392
rfemur -43.4442 -8.30136 -1.86103
rtibia 55.8609
rfoot -12.7443 6.53707
rtoes -30.9853
lfemur 2.99654 11.4321 9.23572
ltibia -1.11319e-014
lfoot -22.2188 -25.8517
ltoes -32.2836
845
root 1.90989 15.7444 13.0671 16.8258 -11.2168 0.999028
lowerback -0.646422 -1.32202 4.12268
upperback -2.74964 -1.83252 -4.03925
thorax -2.74673 -1.07945 -6.48943
lowerneck -6.58151 3.36758 5.87377
upperneck -6.21238 4.17576 1.48057
head -0.74484 1.95064 -0.448404
rclavicle -8.54774e-015 2.54444e-014
rhumerus 9.06409 -29.8638 5.99246
rradius 25.7504
rwrist -13.0236
rhand -35.9247 -51.6038
rfingers 7.12502
rthumb -9.03715 -81.3902
lclavicle -8.54774e-015 2.54444e-014
lhumerus -56.663 -34.6242 115.769
lradius 50.5577
lwrist 21.8281
lhand 36.763 34.6159
lfingers 7.12502
lthumb 59.6621 48.7462
rfemur -43.6885 -8.24034 -1.95857
rtibia 55.9038
rfoot -12.363 6.52963
rtoes -30.9704
lfemur 2.89292 11.5312 9.04882
ltibia -3.02153e-014
lfoot -22.0825 -25.8482
ltoes -32.2251
846
root 1.90903 15.7587 13.0608 16.9292 -11.257 1.07882
lowerback -0.533562 -1.31243 3.98853
upperback -2.7307 -1.81887 -4.07811
thorax -2.78518 -1.07048 -6.45142
lowerneck -6.53554 3.3718 5.89693
upperneck -6.30282 4.19142 1.62584
head -0.782905 1.95444 -0.409031
rclavicle 1.25234e-014 1.82882e-014
rhumerus 8.93671 -29.9435 5.98626
rradius 25.7237
rwrist -12.9218
rhand -35.935 -51.6243
rfingers 7.12502
rthumb -9.0471 -81.4103
lclavicle 1.25234e-014 1.82882e-014
lhumerus -56.5947 -34.6569 115.759
lradius 50.5873
lwrist 21.6296
lhand 36.7555 34.6701
lfingers 7.12502
lthumb 59.6556 48.8069
rfemur -43.9224 -8.11035 -2.06991
rtibia 55.9394
rfoot -11.9504 6.53897
rtoes -31.0243
lfemur 2.74287 11.6022 8.89329
ltibia 2.8625e-014
lfoot -21.9457 -25.8464
ltoes -32.1569
